<svg width="28" height="22" viewBox="0 0 28 22" fill="none" xmlns="http://www.w3.org/2000/svg">
<path d="M24.5923 5.64991C24.6092 5.88323 24.6092 6.1166 24.6092 6.34992C24.6092 13.4666 19.1101 21.6666 9.05926 21.6666C5.96279 21.6666 3.08631 20.7833 0.666672 19.2499C1.10662 19.2999 1.52959 19.3166 1.98647 19.3166C4.54143 19.3166 6.89342 18.4666 8.7716 17.0166C6.36889 16.9666 4.35534 15.4166 3.66158 13.2833C4.00002 13.3333 4.3384 13.3666 4.69376 13.3666C5.18444 13.3666 5.67518 13.2999 6.132 13.1833C3.62778 12.6833 1.74954 10.5166 1.74954 7.89991V7.83326C2.4771 8.23326 3.32319 8.48325 4.21991 8.51659C2.74783 7.54988 1.78339 5.89989 1.78339 4.03321C1.78339 3.03324 2.05407 2.11657 2.52787 1.31656C5.21826 4.58323 9.26227 6.71652 13.7969 6.94989C13.7124 6.54989 13.6616 6.13327 13.6616 5.7166C13.6616 2.74989 16.0981 0.333252 19.1269 0.333252C20.7005 0.333252 22.1219 0.983252 23.1201 2.03325C24.3553 1.79993 25.5397 1.34991 26.5888 0.733252C26.1827 1.98328 25.3197 3.03328 24.1861 3.69991C25.286 3.58329 26.352 3.28323 27.3333 2.8666C26.5889 3.93323 25.6583 4.88319 24.5923 5.64991Z" fill="black"/>
</svg>
