<svg width="132" height="18" viewBox="0 0 132 18" fill="none" xmlns="http://www.w3.org/2000/svg">
<path d="M38 0L41.09 5.92429L48 6.88013L43 11.489L44.18 18L38 14.9243L31.82 18L33 11.489L28 6.88013L34.91 5.92429L38 0Z" fill="#FDC639"/>
<path d="M66 0L69.09 5.92429L76 6.88013L71 11.489L72.18 18L66 14.9243L59.82 18L61 11.489L56 6.88013L62.91 5.92429L66 0Z" fill="#FDC639"/>
<path d="M94 0L97.09 5.92429L104 6.88013L99 11.489L100.18 18L94 14.9243L87.82 18L89 11.489L84 6.88013L90.91 5.92429L94 0Z" fill="#FDC639"/>
<path d="M122 0L125.09 5.92429L132 6.88013L127 11.489L128.18 18L122 14.9243L115.82 18L117 11.489L112 6.88013L118.91 5.92429L122 0Z" fill="#FDC639"/>
<path d="M10 0L13.09 5.92429L20 6.88013L15 11.489L16.18 18L10 14.9243L3.82 18L5 11.489L0 6.88013L6.91 5.92429L10 0Z" fill="#FDC639"/>
</svg>
